<?xml version="1.0" encoding="UTF-8"?>
<svg id="Layer_2" data-name="Layer 2" xmlns="http://www.w3.org/2000/svg" viewBox="0 0 251.89 249.16">
  <defs>
    <style>
      .cls-1, .cls-2 {
        fill: #d7a461;
      }

      .cls-2 {
        fill-rule: evenodd;
      }
    </style>
  </defs>
  <g>
    <rect class="cls-1" x="0" y="247.38" width="251.89" height="2.28"/>
    <rect class="cls-1" x="0" y="232.55" width="251.89" height="2.28"/>
    <path class="cls-2" d="M241.84,243.2c-.83-.39-1.27-1.54-1.44-2.1-.04-.12-.19-.13-.25-.03-.35.62-1.03,2.18.04,3.36-.06,0-.12,0-.18,0-.84-.05-1.63-.31-2.41-.71-1.53-1.52-1.91-2.86-1.36-3.87.39-.71,1.09-1.18,1.77-1.19-.14.66.38,1.34,1.37,1.29s1.44-.46,1.35-1.36c-.09-.95-1.19-1.44-2.44-1.44s-2.67.69-3.31,1.87c-.49.89-.6,1.78-.48,2.58-.14-.11-.28-.22-.43-.34-1.72-1.36-3.66-2.91-6.09-3.9-1.77-.72-4.49-1.55-7.61-.35h0s0,0,0,0c0,0,0,0,0,0-3.3,1.28-5.61,2.43-6.93-.59-.04-.09-.13-.13-.22-.09-.36.14-.61.32-.84.71-1.2-.44-2.48.02-2.75.13-.03.01-.04.05-.03.08.11.25.59,1.27,1.57,1.81-.39.41-.56,1.07-.55,1.66,0,.11.12.17.22.12,2.33-1.3,4.28-1.42,5-1.42.35,0,.68-.02,1-.06-1.17,1-2.95,2.22-4.93,3.22-2.08.84-3.72,1.23-4.98.63-.83-.39-1.27-1.54-1.44-2.1-.04-.12-.19-.13-.25-.03-.35.62-1.03,2.18.04,3.36-.06,0-.12,0-.18,0-.84-.05-1.63-.31-2.41-.71-1.53-1.52-1.91-2.86-1.36-3.87.39-.71,1.09-1.18,1.78-1.19-.14.66.38,1.34,1.37,1.29s1.44-.46,1.35-1.36c-.09-.95-1.19-1.44-2.44-1.44s-2.67.69-3.31,1.87c-.49.89-.6,1.78-.48,2.58-.14-.11-.28-.22-.43-.34-1.72-1.36-3.66-2.91-6.09-3.9-1.77-.72-4.49-1.55-7.61-.35h0s0,0,0,0c0,0,0,0,0,0-3.3,1.28-5.61,2.43-6.93-.59-.04-.09-.13-.13-.22-.09-.36.14-.61.32-.84.71-1.2-.44-2.48.02-2.75.13-.03.01-.04.05-.03.08.11.25.59,1.27,1.57,1.81-.39.41-.56,1.07-.55,1.66,0,.11.12.17.22.12,2.33-1.3,4.28-1.42,5-1.42.35,0,.68-.02,1-.06-1.17,1-2.95,2.22-4.93,3.22-2.08.84-3.72,1.23-4.99.63-.83-.39-1.27-1.54-1.44-2.1-.03-.12-.19-.13-.25-.03-.35.62-1.03,2.18.04,3.36-.06,0-.12,0-.18,0-.84-.05-1.63-.31-2.41-.71-1.53-1.52-1.91-2.86-1.36-3.87.39-.71,1.09-1.18,1.78-1.19-.14.66.38,1.34,1.37,1.29s1.44-.46,1.35-1.36c-.09-.95-1.19-1.44-2.44-1.44s-2.67.69-3.31,1.87c-.49.89-.6,1.78-.48,2.58-.14-.11-.28-.22-.43-.34-1.72-1.36-3.66-2.91-6.09-3.9-1.77-.72-4.49-1.55-7.62-.35h0s0,0,0,0c0,0,0,0,0,0-3.3,1.28-5.61,2.43-6.93-.59-.04-.09-.14-.13-.22-.09-.36.14-.61.32-.84.71-1.2-.44-2.48.02-2.75.13-.03.01-.04.05-.03.08.11.25.59,1.27,1.57,1.81-.39.41-.56,1.07-.55,1.66,0,.11.12.17.22.12,2.33-1.3,4.28-1.42,5-1.42.35,0,.68-.02,1-.06-1.17,1-2.95,2.22-4.93,3.22-2.08.84-3.72,1.23-4.99.63-.83-.39-1.27-1.54-1.44-2.1-.03-.12-.19-.13-.25-.03-.35.62-1.03,2.18.04,3.36-.06,0-.12,0-.18,0-.84-.05-1.63-.31-2.41-.71-1.53-1.52-1.91-2.86-1.36-3.87.39-.71,1.09-1.18,1.78-1.19-.14.66.38,1.34,1.37,1.29s1.44-.46,1.35-1.36c-.09-.95-1.19-1.44-2.44-1.44s-2.67.69-3.31,1.87c-.49.89-.6,1.78-.48,2.58-.14-.11-.28-.22-.43-.34-1.72-1.36-3.66-2.91-6.09-3.9-1.77-.72-4.49-1.55-7.62-.35h0s0,0,0,0c0,0,0,0,0,0-3.3,1.28-5.61,2.43-6.93-.59-.04-.09-.14-.13-.22-.09-.36.14-.61.32-.84.71-1.2-.44-2.48.02-2.75.13-.03.01-.04.05-.03.08.11.25.59,1.27,1.57,1.81-.39.41-.56,1.07-.55,1.66,0,.11.12.17.22.12,2.33-1.3,4.28-1.42,5-1.42.35,0,.68-.02,1-.06-1.17,1-2.95,2.22-4.93,3.22-2.08.84-3.72,1.23-4.98.63-.83-.39-1.27-1.54-1.44-2.1-.04-.12-.19-.13-.25-.03-.35.62-1.03,2.18.04,3.36-.06,0-.12,0-.18,0-.84-.05-1.63-.31-2.41-.71-1.53-1.52-1.91-2.86-1.36-3.87.39-.71,1.09-1.18,1.78-1.19-.14.66.38,1.34,1.37,1.29.99-.05,1.44-.46,1.35-1.36-.09-.95-1.19-1.44-2.44-1.44s-2.67.69-3.31,1.87c-.49.89-.6,1.78-.48,2.58-.14-.11-.28-.22-.43-.34-1.72-1.36-3.66-2.91-6.09-3.9-1.77-.72-4.49-1.55-7.62-.35,0,0,0,0,0,0,0,0,0,0,0,0-3.3,1.28-5.61,2.43-6.93-.59-.04-.09-.14-.13-.22-.09-.36.14-.61.32-.84.71-1.2-.44-2.48.02-2.75.13-.03.01-.04.05-.03.08.11.25.59,1.27,1.57,1.81-.39.41-.56,1.07-.55,1.66,0,.11.12.17.22.12,2.33-1.3,4.28-1.42,5-1.42.35,0,.68-.02,1-.06-1.17,1-2.95,2.22-4.93,3.22-2.08.84-3.72,1.23-4.98.63-.83-.39-1.27-1.54-1.44-2.1-.04-.12-.19-.13-.25-.03-.35.62-1.03,2.18.04,3.36-.06,0-.12,0-.18,0-.84-.05-1.63-.31-2.41-.71-1.53-1.52-1.91-2.86-1.36-3.87.39-.71,1.09-1.18,1.78-1.19-.14.66.38,1.34,1.37,1.29.99-.05,1.44-.46,1.35-1.36-.09-.95-1.19-1.44-2.44-1.44s-2.67.69-3.31,1.87c-.49.89-.6,1.78-.48,2.58-.14-.11-.28-.22-.43-.34-1.72-1.36-3.66-2.91-6.09-3.9-1.77-.72-4.49-1.55-7.61-.35h0s0,0,0,0c0,0,0,0,0,0-3.3,1.28-5.61,2.43-6.93-.59-.04-.09-.14-.13-.22-.09-.36.14-.61.32-.84.71-1.2-.44-2.48.02-2.75.13-.03.01-.04.05-.03.08.11.25.59,1.27,1.57,1.81-.39.41-.56,1.07-.55,1.66,0,.11.12.17.22.12,2.33-1.3,4.28-1.42,5-1.42.35,0,.68-.02,1-.06-1.17,1-2.95,2.22-4.93,3.22-2.08.84-3.72,1.23-4.98.63-.83-.39-1.27-1.54-1.44-2.1-.04-.12-.19-.13-.25-.03-.35.62-1.03,2.18.04,3.36-.06,0-.12,0-.18,0-.84-.05-1.63-.31-2.41-.71-1.53-1.52-1.91-2.86-1.36-3.87.39-.71,1.09-1.18,1.78-1.19-.14.66.38,1.34,1.37,1.29.99-.05,1.44-.46,1.35-1.36-.09-.95-1.19-1.44-2.44-1.44s-2.67.69-3.31,1.87c-.49.89-.6,1.78-.48,2.58-.14-.11-.28-.22-.43-.34-1.72-1.36-3.66-2.91-6.09-3.9-1.77-.72-4.49-1.55-7.62-.35,0,0,0,0,0,0,0,0,0,0,0,0-3.3,1.28-5.61,2.43-6.93-.59-.04-.09-.13-.13-.22-.09-.36.14-.61.32-.84.71-1.2-.44-2.48.02-2.75.13-.03.01-.04.05-.03.08.11.25.59,1.27,1.57,1.81-.39.41-.56,1.07-.55,1.66,0,.11.12.17.22.12,2.33-1.3,4.28-1.42,5-1.42.63,0,1.2-.06,1.82-.22-.28.48-.47,1-.55,1.56-.19,1.33.27,2.64,1.24,3.35,1.33.98,2.4.87,3.13.66.74-.2,1.36-.72,1.34-1.49-.02-.68-.49-1.17-1.29-1.03-.56.1-1.16.52-1.17,1.45-1.88-.28-1.82-1.99-1.7-2.79.17-1.14.88-2.04,2.23-2.56.89-.35,1.75-.5,2.55-.52-1.51,1.07-.97,2.67-.64,3.36.05.1.2.08.22-.03.08-.53.35-1.49,1.23-1.93,1.15-.58,2.68-.66,4.6.11,1.61.87,3,1.97,4.35,3.04.14.11.28.22.42.34-.53-.09-1.02-.09-1.57-.09-.72,0-2.73-.18-4.34-1.13-.09-.06-.2.01-.22.12-.1.61-.2,1.19.11,1.56-.98.54-1.64,1.56-1.74,1.81-.01.03,0,.07.03.08.27.11,1.4.4,2.6-.04.23.39.8.74,1.16.88.09.03.18-.01.22-.1,1.41-2.88,4.04-2.1,7.48-.62.12.05.24.1.36.15,0,0,0,0,0,0h0c.7.28,1.43.47,2.21.51.16,0,.32.01.48.01,3.98,0,8.76-2.68,11.58-4.87-.1,1.24.36,2.43,1.27,3.1,1.33.98,2.4.87,3.13.66.74-.2,1.36-.72,1.34-1.49-.02-.68-.49-1.17-1.29-1.03-.56.1-1.16.52-1.17,1.45-1.88-.28-1.82-1.99-1.7-2.79.17-1.14.88-2.04,2.23-2.56.89-.35,1.75-.5,2.55-.52-1.51,1.07-.97,2.67-.64,3.36.05.1.2.08.22-.03.08-.53.35-1.49,1.23-1.93,1.16-.58,2.68-.66,4.61.11,1.61.87,3,1.97,4.35,3.04.14.11.28.22.42.34-.53-.09-1.02-.09-1.57-.09-.72,0-2.73-.18-4.34-1.13-.09-.06-.2.01-.22.12-.1.61-.2,1.19.11,1.56-.98.54-1.64,1.56-1.74,1.81-.01.03,0,.07.03.08.27.11,1.4.4,2.6-.04.23.39.8.74,1.16.88.09.03.18-.01.22-.1,1.41-2.88,4.04-2.1,7.48-.62.12.05.24.1.35.15,0,0,0,0,0,0,.7.28,1.43.47,2.21.51.16,0,.32.01.48.01,3.98,0,8.76-2.68,11.58-4.87-.1,1.24.36,2.43,1.27,3.1,1.33.98,2.4.87,3.13.66.74-.2,1.36-.72,1.34-1.49-.02-.68-.49-1.17-1.29-1.03-.56.1-1.16.52-1.17,1.45-1.88-.28-1.82-1.99-1.7-2.79.17-1.14.88-2.04,2.23-2.56.89-.35,1.75-.5,2.55-.52-1.51,1.07-.97,2.67-.64,3.36.05.1.2.08.22-.03.09-.53.36-1.49,1.23-1.93,1.15-.58,2.68-.66,4.6.11,1.61.87,3,1.97,4.35,3.04.14.11.28.22.42.34-.53-.09-1.02-.09-1.57-.09-.72,0-2.73-.18-4.34-1.13-.09-.06-.2.01-.22.12-.1.61-.2,1.19.11,1.56-.98.54-1.64,1.56-1.74,1.81-.01.03,0,.07.03.08.27.11,1.4.4,2.6-.04.23.39.8.74,1.16.88.09.03.18-.01.22-.1,1.41-2.88,4.04-2.1,7.48-.62.12.05.24.1.35.15,0,0,0,0,0,0,.7.28,1.43.47,2.21.51.16,0,.32.01.48.01,3.98,0,8.76-2.68,11.58-4.87-.1,1.24.36,2.43,1.27,3.1,1.33.98,2.4.87,3.13.66.74-.2,1.36-.72,1.34-1.49-.02-.68-.49-1.17-1.29-1.03-.56.1-1.16.52-1.17,1.45-1.88-.28-1.82-1.99-1.7-2.79.17-1.14.88-2.04,2.23-2.56.89-.35,1.75-.5,2.55-.52-1.51,1.07-.97,2.67-.64,3.36.05.1.2.08.22-.03.08-.53.36-1.49,1.23-1.93,1.15-.58,2.68-.66,4.61.11,1.61.87,3,1.97,4.35,3.04.14.11.28.22.42.34-.53-.09-1.02-.09-1.57-.09-.72,0-2.73-.18-4.34-1.13-.09-.06-.2.01-.22.12-.1.61-.2,1.19.11,1.56-.98.54-1.64,1.56-1.74,1.81-.01.03,0,.07.03.08.27.11,1.4.4,2.6-.04.23.39.8.74,1.16.88.09.03.18-.01.22-.1,1.41-2.88,4.04-2.1,7.48-.62.12.05.24.1.36.15,0,0,0,0,0,0h0c.7.28,1.43.47,2.21.51.16,0,.32.01.48.01,3.98,0,8.76-2.68,11.58-4.87-.1,1.24.36,2.43,1.27,3.1,1.33.98,2.4.87,3.13.66.74-.2,1.36-.72,1.34-1.49-.02-.68-.49-1.17-1.29-1.03-.56.1-1.16.52-1.17,1.45-1.88-.28-1.82-1.99-1.7-2.79.17-1.14.88-2.04,2.23-2.56.89-.35,1.75-.5,2.55-.52-1.51,1.07-.97,2.67-.64,3.36.05.1.2.08.22-.03.08-.53.36-1.49,1.23-1.93,1.15-.58,2.68-.66,4.61.11,1.61.87,3,1.97,4.35,3.04.14.11.28.22.42.34-.53-.09-1.02-.09-1.57-.09-.72,0-2.73-.18-4.34-1.13-.09-.06-.2.01-.22.12-.1.61-.2,1.19.11,1.56-.98.54-1.64,1.56-1.74,1.81-.01.03,0,.07.03.08.27.11,1.4.4,2.6-.04.23.39.8.74,1.16.88.09.03.18-.01.22-.1,1.41-2.88,4.04-2.1,7.48-.62.12.05.24.1.35.15,0,0,0,0,0,0,.7.28,1.43.47,2.21.51.16,0,.32.01.48.01,3.98,0,8.76-2.68,11.58-4.87-.1,1.24.36,2.43,1.27,3.1,1.33.98,2.4.87,3.13.66.74-.2,1.36-.72,1.34-1.49-.02-.68-.49-1.17-1.29-1.03-.56.1-1.16.52-1.17,1.45-1.88-.28-1.82-1.99-1.7-2.79.17-1.14.88-2.04,2.23-2.56.89-.35,1.75-.5,2.55-.52-1.51,1.07-.97,2.67-.64,3.36.05.1.2.08.22-.03.08-.53.35-1.49,1.23-1.93,1.15-.58,2.68-.66,4.6.11,1.61.87,3,1.97,4.35,3.04.14.11.28.22.42.34-.53-.09-1.02-.09-1.57-.09-.72,0-2.73-.18-4.34-1.13-.09-.06-.2.01-.22.12-.1.61-.2,1.19.11,1.56-.98.54-1.64,1.56-1.74,1.81-.01.03,0,.07.03.08.27.11,1.4.4,2.6-.04.23.39.8.74,1.16.88.09.03.18-.01.22-.1,1.41-2.88,4.04-2.1,7.48-.62.12.05.24.1.35.15,0,0,0,0,0,0,.7.28,1.43.47,2.21.51.16,0,.32.01.48.01,3.98,0,8.76-2.68,11.58-4.87-.1,1.24.36,2.43,1.27,3.1,1.33.98,2.4.87,3.13.66.74-.2,1.36-.72,1.34-1.49-.02-.68-.49-1.17-1.29-1.03-.56.1-1.16.52-1.17,1.45-1.88-.28-1.82-1.99-1.7-2.79.17-1.14.88-2.04,2.23-2.56.89-.35,1.75-.5,2.55-.52-1.51,1.07-.97,2.67-.64,3.36.05.1.2.08.22-.03.08-.53.35-1.49,1.23-1.93,1.15-.58,2.68-.66,4.6.11,1.61.87,3,1.97,4.35,3.04.14.11.28.22.42.34-.53-.09-1.02-.09-1.57-.09-.72,0-2.73-.18-4.34-1.13-.09-.06-.2.01-.22.12-.1.61-.2,1.19.11,1.56-.98.54-1.64,1.56-1.74,1.81-.01.03,0,.07.03.08.27.11,1.4.4,2.6-.04.23.39.8.74,1.16.88.09.03.18-.01.22-.1,1.41-2.88,4.04-2.1,7.48-.62.12.05.24.1.35.15,0,0,0,0,0,0,.7.28,1.43.47,2.21.51.16,0,.32.01.48.01,3.94,0,8.65-2.62,11.48-4.8v-1.72c-1.17,1-3.09,2.22-5.06,3.22-2.08.84-3.72,1.23-4.98.63"/>
    <rect class="cls-1" x="0" y="148.63" width="251.89" height="2.28"/>
    <rect class="cls-1" x="0" y="133.79" width="251.89" height="2.28"/>
    <path class="cls-2" d="M241.84,144.44c-.83-.39-1.27-1.54-1.44-2.1-.04-.12-.19-.13-.25-.03-.35.62-1.03,2.18.04,3.36-.06,0-.12,0-.18,0-.84-.05-1.63-.31-2.41-.71-1.53-1.52-1.91-2.86-1.36-3.87.39-.71,1.09-1.18,1.77-1.19-.14.66.38,1.34,1.37,1.29.99-.05,1.44-.46,1.35-1.36-.09-.95-1.19-1.44-2.44-1.44s-2.67.69-3.31,1.87c-.49.89-.6,1.78-.48,2.58-.14-.11-.28-.22-.43-.34-1.72-1.36-3.66-2.91-6.09-3.9-1.77-.72-4.49-1.55-7.61-.35h0s0,0,0,0c0,0,0,0,0,0-3.3,1.28-5.61,2.43-6.93-.59-.04-.09-.13-.13-.22-.09-.36.14-.61.32-.84.71-1.2-.44-2.48.02-2.75.13-.03.01-.04.05-.03.08.11.25.59,1.27,1.57,1.81-.39.41-.56,1.07-.55,1.66,0,.11.12.17.22.12,2.33-1.3,4.28-1.42,5-1.42.35,0,.68-.02,1-.06-1.17,1-2.95,2.22-4.93,3.22-2.08.84-3.72,1.23-4.98.63-.83-.39-1.27-1.54-1.44-2.1-.04-.12-.19-.13-.25-.03-.35.62-1.03,2.18.04,3.36-.06,0-.12,0-.18,0-.84-.05-1.63-.31-2.41-.71-1.53-1.52-1.91-2.86-1.36-3.87.39-.71,1.09-1.18,1.78-1.19-.14.66.38,1.34,1.37,1.29.99-.05,1.44-.46,1.35-1.36-.09-.95-1.19-1.44-2.44-1.44s-2.67.69-3.31,1.87c-.49.89-.6,1.78-.48,2.58-.14-.11-.28-.22-.43-.34-1.72-1.36-3.66-2.91-6.09-3.9-1.77-.72-4.49-1.55-7.61-.35h0s0,0,0,0c0,0,0,0,0,0-3.3,1.28-5.61,2.43-6.93-.59-.04-.09-.13-.13-.22-.09-.36.14-.61.32-.84.71-1.2-.44-2.48.02-2.75.13-.03.01-.04.05-.03.08.11.25.59,1.27,1.57,1.81-.39.41-.56,1.07-.55,1.66,0,.11.12.17.22.12,2.33-1.3,4.28-1.42,5-1.42.35,0,.68-.02,1-.06-1.17,1-2.95,2.22-4.93,3.22-2.08.84-3.72,1.23-4.99.63-.83-.39-1.27-1.54-1.44-2.1-.03-.12-.19-.13-.25-.03-.35.62-1.03,2.18.04,3.36-.06,0-.12,0-.18,0-.84-.05-1.63-.31-2.41-.71-1.53-1.52-1.91-2.86-1.36-3.87.39-.71,1.09-1.18,1.78-1.19-.14.66.38,1.34,1.37,1.29.99-.05,1.44-.46,1.35-1.36-.09-.95-1.19-1.44-2.44-1.44s-2.67.69-3.31,1.87c-.49.89-.6,1.78-.48,2.58-.14-.11-.28-.22-.43-.34-1.72-1.36-3.66-2.91-6.09-3.9-1.77-.72-4.49-1.55-7.62-.35h0s0,0,0,0h0c-3.3,1.28-5.61,2.43-6.93-.59-.04-.09-.14-.13-.22-.09-.36.14-.61.32-.84.71-1.2-.44-2.48.02-2.75.13-.03.01-.04.05-.03.08.11.25.59,1.27,1.57,1.81-.39.41-.56,1.07-.55,1.66,0,.11.12.17.22.12,2.33-1.3,4.28-1.42,5-1.42.35,0,.68-.02,1-.06-1.17,1-2.95,2.22-4.93,3.22-2.08.84-3.72,1.23-4.99.63-.83-.39-1.27-1.54-1.44-2.1-.03-.12-.19-.13-.25-.03-.35.62-1.03,2.18.04,3.36-.06,0-.12,0-.18,0-.84-.05-1.63-.31-2.41-.71-1.53-1.52-1.91-2.86-1.36-3.87.39-.71,1.09-1.18,1.78-1.19-.14.66.38,1.34,1.37,1.29.99-.05,1.44-.46,1.35-1.36-.09-.95-1.19-1.44-2.44-1.44s-2.67.69-3.31,1.87c-.49.89-.6,1.78-.48,2.58-.14-.11-.28-.22-.43-.34-1.72-1.36-3.66-2.91-6.09-3.9-1.77-.72-4.49-1.55-7.62-.35h0s0,0,0,0h0c-3.3,1.28-5.61,2.43-6.93-.59-.04-.09-.14-.13-.22-.09-.36.14-.61.32-.84.71-1.2-.44-2.48.02-2.75.13-.03.01-.04.05-.03.08.11.25.59,1.27,1.57,1.81-.39.41-.56,1.07-.55,1.66,0,.11.12.17.22.12,2.33-1.3,4.28-1.42,5-1.42.35,0,.68-.02,1-.06-1.17,1-2.95,2.22-4.93,3.22-2.08.84-3.72,1.23-4.98.63-.83-.39-1.27-1.54-1.44-2.1-.04-.12-.19-.13-.25-.03-.35.62-1.03,2.18.04,3.36-.06,0-.12,0-.18,0-.84-.05-1.63-.31-2.41-.71-1.53-1.52-1.91-2.86-1.36-3.87.39-.71,1.09-1.18,1.78-1.19-.14.66.38,1.34,1.37,1.29.99-.05,1.44-.46,1.35-1.36-.09-.95-1.19-1.44-2.44-1.44s-2.67.69-3.31,1.87c-.49.89-.6,1.78-.48,2.58-.14-.11-.28-.22-.43-.34-1.72-1.36-3.66-2.91-6.09-3.9-1.77-.72-4.49-1.55-7.62-.35,0,0,0,0,0,0h0c-3.3,1.28-5.61,2.43-6.93-.59-.04-.09-.14-.13-.22-.09-.36.14-.61.32-.84.71-1.2-.44-2.48.02-2.75.13-.03.01-.04.05-.03.08.11.25.59,1.27,1.57,1.81-.39.41-.56,1.07-.55,1.66,0,.11.12.17.22.12,2.33-1.3,4.28-1.42,5-1.42.35,0,.68-.02,1-.06-1.17,1-2.95,2.22-4.93,3.22-2.08.84-3.72,1.23-4.98.63-.83-.39-1.27-1.54-1.44-2.1-.04-.12-.19-.13-.25-.03-.35.62-1.03,2.18.04,3.36-.06,0-.12,0-.18,0-.84-.05-1.63-.31-2.41-.71-1.53-1.52-1.91-2.86-1.36-3.87.39-.71,1.09-1.18,1.78-1.19-.14.66.38,1.34,1.37,1.29.99-.05,1.44-.46,1.35-1.36-.09-.95-1.19-1.44-2.44-1.44s-2.67.69-3.31,1.87c-.49.89-.6,1.78-.48,2.58-.14-.11-.28-.22-.43-.34-1.72-1.36-3.66-2.91-6.09-3.9-1.77-.72-4.49-1.55-7.61-.35h0s0,0,0,0h0c-3.3,1.28-5.61,2.43-6.93-.59-.04-.09-.14-.13-.22-.09-.36.14-.61.32-.84.71-1.2-.44-2.48.02-2.75.13-.03.01-.04.05-.03.08.11.25.59,1.27,1.57,1.81-.39.41-.56,1.07-.55,1.66,0,.11.12.17.22.12,2.33-1.3,4.28-1.42,5-1.42.35,0,.68-.02,1-.06-1.17,1-2.95,2.22-4.93,3.22-2.08.84-3.72,1.23-4.98.63-.83-.39-1.27-1.54-1.44-2.1-.04-.12-.19-.13-.25-.03-.35.62-1.03,2.18.04,3.36-.06,0-.12,0-.18,0-.84-.05-1.63-.31-2.41-.71-1.53-1.52-1.91-2.86-1.36-3.87.39-.71,1.09-1.18,1.78-1.19-.14.66.38,1.34,1.37,1.29.99-.05,1.44-.46,1.35-1.36-.09-.95-1.19-1.44-2.44-1.44s-2.67.69-3.31,1.87c-.49.89-.6,1.78-.48,2.58-.14-.11-.28-.22-.43-.34-1.72-1.36-3.66-2.91-6.09-3.9-1.77-.72-4.49-1.55-7.62-.35,0,0,0,0,0,0h0c-3.3,1.28-5.61,2.43-6.93-.59-.04-.09-.13-.13-.22-.09-.36.14-.61.32-.84.71-1.2-.44-2.48.02-2.75.13-.03.01-.04.05-.03.08.11.25.59,1.27,1.57,1.81-.39.41-.56,1.07-.55,1.66,0,.11.12.17.22.12,2.33-1.3,4.28-1.42,5-1.42.63,0,1.2-.06,1.82-.22-.28.48-.47,1-.55,1.56-.19,1.33.27,2.64,1.24,3.35,1.33.98,2.4.87,3.13.66.74-.2,1.36-.72,1.34-1.49-.02-.68-.49-1.17-1.29-1.03-.56.1-1.16.52-1.17,1.45-1.88-.28-1.82-1.99-1.7-2.79.17-1.14.88-2.04,2.23-2.56.89-.35,1.75-.5,2.55-.52-1.51,1.07-.97,2.67-.64,3.36.05.1.2.08.22-.03.08-.53.35-1.49,1.23-1.93,1.15-.58,2.68-.66,4.6.11,1.61.87,3,1.97,4.35,3.04.14.11.28.22.42.34-.53-.09-1.02-.09-1.57-.09-.72,0-2.73-.18-4.34-1.13-.09-.06-.2.01-.22.12-.1.61-.2,1.19.11,1.56-.98.54-1.64,1.56-1.74,1.81-.01.03,0,.07.03.08.27.11,1.4.4,2.6-.04.23.39.8.74,1.16.88.09.03.18-.01.22-.1,1.41-2.88,4.04-2.1,7.48-.62.12.05.24.1.36.15,0,0,0,0,0,0h0c.7.28,1.43.47,2.21.51.16,0,.32.01.48.01,3.98,0,8.76-2.68,11.58-4.87-.1,1.24.36,2.43,1.27,3.1,1.33.98,2.4.87,3.13.66.74-.2,1.36-.72,1.34-1.49-.02-.68-.49-1.17-1.29-1.03-.56.1-1.16.52-1.17,1.45-1.88-.28-1.82-1.99-1.7-2.79.17-1.14.88-2.04,2.23-2.56.89-.35,1.75-.5,2.55-.52-1.51,1.07-.97,2.67-.64,3.36.05.1.2.08.22-.03.08-.53.35-1.49,1.23-1.93,1.16-.58,2.68-.66,4.61.11,1.61.87,3,1.97,4.35,3.04.14.11.28.22.42.34-.53-.09-1.02-.09-1.57-.09-.72,0-2.73-.18-4.34-1.13-.09-.06-.2.01-.22.12-.1.61-.2,1.19.11,1.56-.98.54-1.64,1.56-1.74,1.81-.01.03,0,.07.03.08.27.11,1.4.4,2.6-.04.23.39.8.74,1.16.88.09.03.18-.01.22-.1,1.41-2.88,4.04-2.1,7.48-.62.12.05.24.1.35.15,0,0,0,0,0,0,.7.28,1.43.47,2.21.51.16,0,.32.01.48.01,3.98,0,8.76-2.68,11.58-4.87-.1,1.24.36,2.43,1.27,3.1,1.33.98,2.4.87,3.13.66.74-.2,1.36-.72,1.34-1.49-.02-.68-.49-1.17-1.29-1.03-.56.1-1.16.52-1.17,1.45-1.88-.28-1.82-1.99-1.7-2.79.17-1.14.88-2.04,2.23-2.56.89-.35,1.75-.5,2.55-.52-1.51,1.07-.97,2.67-.64,3.36.05.1.2.08.22-.03.09-.53.36-1.49,1.23-1.93,1.15-.58,2.68-.66,4.6.11,1.61.87,3,1.97,4.35,3.04.14.11.28.22.42.34-.53-.09-1.02-.09-1.57-.09-.72,0-2.73-.18-4.34-1.13-.09-.06-.2.01-.22.12-.1.61-.2,1.19.11,1.56-.98.54-1.64,1.56-1.74,1.81-.01.03,0,.07.03.08.27.11,1.4.4,2.6-.04.23.39.8.74,1.16.88.09.03.18-.01.22-.1,1.41-2.88,4.04-2.1,7.48-.62.12.05.24.1.35.15,0,0,0,0,0,0,.7.28,1.43.47,2.21.51.16,0,.32.01.48.01,3.98,0,8.76-2.68,11.58-4.87-.1,1.24.36,2.43,1.27,3.1,1.33.98,2.4.87,3.13.66.74-.2,1.36-.72,1.34-1.49-.02-.68-.49-1.17-1.29-1.03-.56.1-1.16.52-1.17,1.45-1.88-.28-1.82-1.99-1.7-2.79.17-1.14.88-2.04,2.23-2.56.89-.35,1.75-.5,2.55-.52-1.51,1.07-.97,2.67-.64,3.36.05.1.2.08.22-.03.08-.53.36-1.49,1.23-1.93,1.15-.58,2.68-.66,4.61.11,1.61.87,3,1.97,4.35,3.04.14.11.28.22.42.34-.53-.09-1.02-.09-1.57-.09-.72,0-2.73-.18-4.34-1.13-.09-.06-.2.01-.22.12-.1.61-.2,1.19.11,1.56-.98.54-1.64,1.56-1.74,1.81-.01.03,0,.07.03.08.27.11,1.4.4,2.6-.04.23.39.8.74,1.16.88.09.03.18-.01.22-.1,1.41-2.88,4.04-2.1,7.48-.62.12.05.24.1.36.15,0,0,0,0,0,0h0c.7.28,1.43.47,2.21.51.16,0,.32.01.48.01,3.98,0,8.76-2.68,11.58-4.87-.1,1.24.36,2.43,1.27,3.1,1.33.98,2.4.87,3.13.66.74-.2,1.36-.72,1.34-1.49-.02-.68-.49-1.17-1.29-1.03-.56.1-1.16.52-1.17,1.45-1.88-.28-1.82-1.99-1.7-2.79.17-1.14.88-2.04,2.23-2.56.89-.35,1.75-.5,2.55-.52-1.51,1.07-.97,2.67-.64,3.36.05.1.2.08.22-.03.08-.53.36-1.49,1.23-1.93,1.15-.58,2.68-.66,4.61.11,1.61.87,3,1.97,4.35,3.04.14.11.28.22.42.34-.53-.09-1.02-.09-1.57-.09-.72,0-2.73-.18-4.34-1.13-.09-.06-.2.01-.22.12-.1.61-.2,1.19.11,1.56-.98.54-1.64,1.56-1.74,1.81-.01.03,0,.07.03.08.27.11,1.4.4,2.6-.04.23.39.8.74,1.16.88.09.03.18-.01.22-.1,1.41-2.88,4.04-2.1,7.48-.62.12.05.24.1.35.15,0,0,0,0,0,0,.7.28,1.43.47,2.21.51.16,0,.32.01.48.01,3.98,0,8.76-2.68,11.58-4.87-.1,1.24.36,2.43,1.27,3.1,1.33.98,2.4.87,3.13.66.74-.2,1.36-.72,1.34-1.49-.02-.68-.49-1.17-1.29-1.03-.56.1-1.16.52-1.17,1.45-1.88-.28-1.82-1.99-1.7-2.79.17-1.14.88-2.04,2.23-2.56.89-.35,1.75-.5,2.55-.52-1.51,1.07-.97,2.67-.64,3.36.05.1.2.08.22-.03.08-.53.35-1.49,1.23-1.93,1.15-.58,2.68-.66,4.6.11,1.61.87,3,1.97,4.35,3.04.14.11.28.22.42.34-.53-.09-1.02-.09-1.57-.09-.72,0-2.73-.18-4.34-1.13-.09-.06-.2.01-.22.12-.1.61-.2,1.19.11,1.56-.98.54-1.64,1.56-1.74,1.81-.01.03,0,.07.03.08.27.11,1.4.4,2.6-.04.23.39.8.74,1.16.88.09.03.18-.01.22-.1,1.41-2.88,4.04-2.1,7.48-.62.12.05.24.1.35.15,0,0,0,0,0,0,.7.28,1.43.47,2.21.51.16,0,.32.01.48.01,3.98,0,8.76-2.68,11.58-4.87-.1,1.24.36,2.43,1.27,3.1,1.33.98,2.4.87,3.13.66.74-.2,1.36-.72,1.34-1.49-.02-.68-.49-1.17-1.29-1.03-.56.1-1.16.52-1.17,1.45-1.88-.28-1.82-1.99-1.7-2.79.17-1.14.88-2.04,2.23-2.56.89-.35,1.75-.5,2.55-.52-1.51,1.07-.97,2.67-.64,3.36.05.1.2.08.22-.03.08-.53.35-1.49,1.23-1.93,1.15-.58,2.68-.66,4.6.11,1.61.87,3,1.97,4.35,3.04.14.11.28.22.42.34-.53-.09-1.02-.09-1.57-.09-.72,0-2.73-.18-4.34-1.13-.09-.06-.2.01-.22.12-.1.61-.2,1.19.11,1.56-.98.54-1.64,1.56-1.74,1.81-.01.03,0,.07.03.08.27.11,1.4.4,2.6-.04.23.39.8.74,1.16.88.09.03.18-.01.22-.1,1.41-2.88,4.04-2.1,7.48-.62.12.05.24.1.35.15,0,0,0,0,0,0,.7.28,1.43.47,2.21.51.16,0,.32.01.48.01,3.94,0,8.65-2.62,11.48-4.8v-1.72c-1.17,1-3.09,2.22-5.06,3.22-2.08.84-3.72,1.23-4.98.63"/>
    <path class="cls-2" d="M101.62,176.33c-.69-.56-1.45-.97-2.32-1.18-.48-.11-.95-.1-1.42.02-.73.19-1.34.6-1.88,1.11-1.27,1.18-2.15,2.61-2.59,4.29-.27,1.05-.34,2.11-.11,3.19.33,1.59,1.47,2.71,3.06,3,.56.1,1.12.11,1.69.05.7-.07,1.4-.16,2.11-.22.39-.03.79-.04,1.18-.02.77.05,1.51.19,2.19.58.59.34,1.01.8,1.18,1.46-.13.34-.32.62-.54.88-.29.34-.59.69-.89,1.02-1.21,1.31-2.57,2.46-3.95,3.58-3.02,2.44-6.25,4.55-9.59,6.51-4.83,2.84-9.9,5.19-15.08,7.31-.86.35-5.57,1.86-5.57,1.86h10.72c4.48-1.58,9.8-4.48,10.45-4.83,2.26-1.24,4.4-2.66,6.48-4.17,1.63-1.18,3.21-2.4,4.67-3.78.82-.78,1.6-1.59,2.36-2.43.84-.92,1.34-2.02,1.56-3.24.2-1.11.4-2.22.55-3.34.42-3.13-.15-6.07-1.79-8.79-.66-1.1-1.47-2.07-2.47-2.88M100.56,181.99c-1.17.16-2.35.23-3.53.19-.34,0-.67-.06-.99-.19-.27-.11-.48-.28-.56-.66.23-.68.69-1.2,1.45-1.44.54-.17,1.06-.08,1.56.16.85.4,1.57.97,2.17,1.7.03.04.02.1.03.16-.04.03-.08.09-.12.09"/>
    <path class="cls-2" d="M236.13,204.96c2.26-1.24,4.39-2.66,6.48-4.17,1.63-1.18,3.21-2.4,4.67-3.78.82-.78,1.6-1.59,2.36-2.43.84-.92,1.34-2.02,1.56-3.24.2-1.11.4-2.22.55-3.34.42-3.13-.15-6.07-1.79-8.79-.66-1.1-1.47-2.07-2.47-2.88-.69-.56-1.45-.97-2.32-1.18-.48-.11-.95-.1-1.42.02-.73.19-1.34.6-1.88,1.11-1.27,1.18-2.15,2.61-2.59,4.29-.27,1.05-.33,2.11-.11,3.19.33,1.59,1.47,2.71,3.06,3,.56.1,1.12.11,1.69.05.7-.07,1.4-.16,2.11-.22.39-.03.79-.04,1.18-.02.76.05,1.51.19,2.19.58.59.34,1.01.8,1.18,1.46-.13.34-.32.62-.54.88-.29.34-.59.69-.89,1.02-1.21,1.31-2.57,2.46-3.95,3.58-3.02,2.44-6.25,4.55-9.59,6.51-4.83,2.84-9.9,5.19-15.08,7.31-.86.35-5.57,1.86-5.57,1.86h10.72c4.48-1.58,9.8-4.48,10.45-4.83M246.44,181.99c-1.17.16-2.35.23-3.53.19-.34,0-.67-.06-.99-.19-.27-.11-.49-.28-.56-.66.23-.68.69-1.2,1.45-1.44.54-.17,1.06-.08,1.56.16.85.4,1.57.97,2.17,1.7.03.04.02.1.03.16-.04.03-.08.09-.12.09"/>
    <path class="cls-2" d="M195.99,172.96c-1.28,2.22-1.67,2.79-2.12,3.21-.13-.11-.26-.21-.38-.33-.52-.52-1.05-1.05-1.56-1.58-.16-.16-.31-.34-.44-.52-.04-.06-.01-.16-.02-.25.38-.1.75-.02,1.11,0,.31.02.62.04.94.04.11,0,.22-.07.22-.26-.11-.2-.33-.33-.54-.47-.62-.41-1.24-.82-1.87-1.2-1.26-.77-2.54-1.53-3.81-2.29-.15-.09-.29-.19-.47-.07-.14,1.08-.23,4.03-.14,4.67.88.38,1.09.55,1.6,1.32.02.02.03.05.04.07.72,1.13,1.52,2.21,2.37,3.24.25.31.5.62.77.95,0,0-4.54,5.97-4.24,12.19.1,1.99.75,4.24,3.47,4.24,3.23,0,6.82-3.67,7.24-4.37.8-1.32,1.16-2.78,1.25-4.3.07-1.08.03-2.16-.14-3.24-.19-1.23-.59-2.37-1.27-3.41-.54-.81-1.16-1.55-1.82-2.26-.15-.16-.29-.34-.45-.52.08-.15.14-.27.21-.4.65-1.2,1.29-2.41,1.95-3.61,1.05-1.92,1.02-1.98,1.46-4.34.21-1.13.68-3.4.68-3.4h-.45s-1.11,2.3-1.7,3.43c-.61,1.16-1.25,2.3-1.9,3.44M198.24,186.87s-4.1,4.17-7.31,4.17c-1.38,0-2.27-.81-2.27-.81,0-2.64,4.52-8.73,4.68-8.92.13.09,2.46,1.8,4.9,5.57"/>
    <path class="cls-2" d="M4.42,165.53c.07.04.16.05.23.07.25-.1.34-.32.46-.5.52-.82,1.03-1.64,1.56-2.45.12-.19.2-.42.48-.52.74.42,1.45.94,2.19,1.42.76.49,1.52,1,2.32,1.53.14-.11.22-.15.26-.22.72-1.13,1.44-2.26,2.15-3.39.04-.07.05-.16.07-.23-.53-.47-3.11-2.2-4.33-2.9-.12-.07-.25-.11-.41-.18-.14.18-.27.32-.38.48-.54.84-1.07,1.68-1.61,2.52-.1.16-.23.31-.37.49-.45-.19-.8-.49-1.18-.73-.39-.24-.76-.51-1.14-.75-.38-.25-.76-.5-1.15-.73-.39-.23-.75-.52-1.15-.68-.08.04-.15.06-.18.1-.72,1.12-1.45,2.25-2.16,3.38-.04.07-.04.16-.06.22.03.07.03.15.07.17,1.44.97,2.88,1.94,4.32,2.9"/>
    <path class="cls-2" d="M184.54,162.81c1.35.9,2.71,1.8,4.06,2.69.09.06.21.07.3.1.25-.16.36-.4.5-.61.54-.84,1.07-1.68,1.61-2.52.09-.14.16-.31.41-.33,1.49.93,2.95,1.97,4.46,2.91.11-.07.19-.1.24-.17.26-.32,2.04-3.19,2.26-3.65-.07-.07-.13-.17-.22-.23-1.38-.9-2.77-1.8-4.16-2.7-.11-.07-.25-.1-.41-.17-.8,1.14-1.47,2.34-2.31,3.54-.84-.52-1.58-1.05-2.35-1.54-.77-.48-1.5-1.02-2.31-1.4-.43.47-1.5,2.08-2.28,3.44-.05.09-.07.21-.12.33.12.11.21.22.32.3"/>
    <path class="cls-2" d="M64.53,204.95c-.56.34-1.12.68-1.69,1-1.21.7-2.48,1.27-3.82,1.67-.97.29-1.96.37-2.96.29-.34-.03-.68-.11-.99-.23-.42-.15-.73-.43-.8-.9.05-.4.26-.71.5-.99.26-.3.52-.61.82-.87.72-.61,1.45-1.2,2.19-1.78.53-.42,1.09-.82,1.63-1.22.19-.54.37-1.04.54-1.56.01-.04-.01-.1-.02-.15-.12-.07-.21,0-.3.08-.32.24-.62.5-.94.74-.41.31-.82.62-1.23.92-.42.3-.89.38-1.38.22-.43-.14-.87-.29-1.28-.47-.25-.12-.48-.3-.7-.48-.16-.13-.25-.31-.17-.58.41-.5.94-.84,1.61-.9.54.16.63.2.78.35.2.22.31.47.34.77,0,.08.02.17.06.25.05.09.09.21.29.17.41-.54.39-1.19.36-1.84-.03-.61-.16-1.18-.64-1.57-.47-.17-.83,0-1.18.2-1.25.72-2.13,1.78-2.76,3.06-.06.13-.09.27-.14.4-.15.41-.06.78.17,1.13.21.32.5.56.83.72.33.17.68.28,1.02.43.15.07.35.05.43.29-.09.11-.19.24-.29.37-.28.36-.59.7-.85,1.07-.36.52-.63,1.08-.77,1.7-.21.94.19,1.81,1.16,2.2.45.18.92.28,1.41.31.92.04,1.82-.09,2.7-.34,1.73-.48,3.29-1.26,4.61-2.5.5-.47.98-.95,1.46-1.43.18-.18.35-.37.52-.57.04-.05.04-.13.07-.26-.26.07-.43.17-.59.27"/>
    <path class="cls-2" d="M173.67,203.39l-.21-.43c-.26.2-4.62,4.39-8.68,4.39-1.24,0-1.71-.66-1.71-1.31,0-1.08,2.67-4.34,2.67-5.78,0-.58-.07-1.16-1.42-1.16-1.73,0-2.95.32-3.29.97-.26.5-.83,1.67-.83,1.67l.19.26s1.13-.51,2.97-.51c.59,0,.86.17.86.42,0,.67-2.46,3.89-2.48,5.83,0,1.16.8,1.97,2.1,1.97,5.53,0,9.83-6.33,9.83-6.33"/>
    <path class="cls-2" d="M122.9,161.5c-.06.39-.12.78-.13,1.17,0,.42.02.86.09,1.27.21,1.22,1.83,2.16,3.11,1.32.39-.26.75-.56.99-.96.24-.39.42-.82.63-1.23.12-.24.13-.53.32-.77.36.26.33.67.47.98.4.88,1.06,1.41,1.99,1.62.68.15,1.27-.05,1.76-.53.31-.3.55-.67.67-1.08.13-.44.23-.9.3-1.35.12-.86-.01-1.7-.31-2.52-.44-1.21-.86-2.42-1.15-3.67-.02-.09-.08-.17-.12-.26-.06.02-.11.02-.12.04-.51.86-.76,1.76-.44,2.75.25.78.53,1.55.79,2.33.18.54.4,1.07.46,1.67-.1.12-.14.19-.2.22-1.06.51-2.23.17-2.74-.85-.22-.44-.36-.93-.45-1.41-.11-.56-.14-1.13-.18-1.7-.06-.97-.3-1.9-.69-2.79-.04-.09-.14-.14-.25-.25-.37.53-.54,1.11-.75,1.64.17.76.33,1.49.49,2.22.18.82.07,1.64-.12,2.44-.08.33-.27.67-.49.94-.84,1.03-1.92,1-2.78-.05-.04-.05-.06-.13-.11-.23-.14-.63-.09-1.3.06-1.97.18-.84.21-1.7.15-2.55-.03-.42-.15-.84-.25-1.25-.02-.09-.09-.18-.17-.32-.48.61-.74,1.18-.97,1.73.39,1.58.4,1.76.14,3.43"/>
    <path class="cls-2" d="M128.42,199.38c-.53-.42-4.2-2.64-4.97-2.95-.39.5-2.15,3.74-2.18,3.89.14.11,3.01,2.08,4.83,2.86.61-.66,1.82-2.58,2.31-3.8"/>
    <path class="cls-2" d="M230.26,161.8c-.53-.42-4.2-2.64-4.97-2.95-.39.5-2.15,3.74-2.18,3.89.14.11,3.01,2.08,4.83,2.86.61-.66,1.82-2.58,2.31-3.8"/>
    <path class="cls-2" d="M106.22,155.48c-1.1,0-1.64,2.07-1.81,2.96-.39,1.92-.48,4.47-.57,5.07-.88-1.22-1.54-2.46-2.3-3.62-.7-1.08-1.66-1.87-2.84-2.37-.97-.41-1.13,2.28-.04,2.85.74.39,1.8.23,2.37.84.83.91,1.82,3.16,2.56,4.73.42.85.69.23.87-.51.46-1.93.43-7.92,2.07-7.29.42.16.99.77.99.77l.73-1.92s-1.31-1.51-2.02-1.51"/>
    <path class="cls-2" d="M242.29,160.38c.74.39,1.8.23,2.37.84.83.91,1.82,3.16,2.56,4.73.42.85.69.23.87-.51.46-1.93.43-7.92,2.07-7.29.42.16.99.77.99.77l.73-1.92s-1.31-1.51-2.02-1.51c-1.1,0-1.64,2.07-1.81,2.96-.39,1.92-.48,4.47-.57,5.07-.88-1.22-1.54-2.46-2.3-3.62-.7-1.08-1.66-1.87-2.84-2.37-.97-.41-1.13,2.28-.04,2.85"/>
    <path class="cls-2" d="M24.94,164.74c0,6.48,2.69,13.04,2.69,17.02h.79c0-5.88-1.86-13.03-1.86-17.56,0-1.76.26-3.68,2.68-3.68,2.04,0,3.27.91,3.27.91l1.04-2.12s-1.91-3.92-4.66-3.92c-2.04,0-3.01,2.57-3.29,3.8l.62.27c.37-.77,1.62-1.69,2.74-1.69,1.01,0,1.95.66,1.95.66l-.07.36c-5.1,0-5.91,4.83-5.91,5.95"/>
    <path class="cls-2" d="M40.02,174.66l.42.84c3.87-2.18,10.44-6.1,14-10.17.59-.68,1.27-1.53,1.64-2.12,1.29.58,2.58,1.69,2.58,1.69l.37-2.28s-.77-.75-2.01-1.3c.67-1.64,1.37-5.82-1.04-5.82-.96,0-3.48,1.53-3.45,4.65,0,.23.05.47.14.68.12.3.39.57.71.81.59.44,1.24.77,1.87,1.1-.43.54-.91,1.04-1.32,1.45-1.76,1.72-11.34,9-13.91,10.49M55.07,160.2c-.38-.2-.76-.42-1.1-.68l-.03-.02c-.16-.12-.35-.28-.47-.44,0-.01-.02-.02-.02-.03-.14-.2-.08-.34.02-.46.24-.32.61-.65,1.01-.84.5-.25,1.02-.28,1.48.07.42.33.65.88.72,1.43.04.26.02.58-.04.9-.05.26-.13.53-.25.8-.28-.15-.56-.29-.81-.42-.15-.09-.33-.19-.51-.29"/>
    <path class="cls-2" d="M132.31,183.87s-.03.44-.04.58c-.03.57-.08,1.14-.1,1.71-.04,1.32.09,2.62.43,3.89.74,2.8,2.4,4.88,4.97,6.21,1.36.7,2.81,1.08,4.32,1.26,1.33.16,2.67.17,4.01.05,2.08-.19,4.11-.58,6.1-1.22,2.55-.82,5.03-1.84,7.44-3.01,1.92-.94,3.81-1.93,5.72-2.89,1.38-.69,2.77-1.34,4.16-2,.74-.35,1.58-.63,2.51-.85,0,.15,0,.29,0,.44,0,4.4-.48,6.86,0,6.86.53,0,1.59-3.64,2.07-7.66,1.09-.13,2.26-.2,3.49-.2,2.85,0,4.52.25,4.52.25,0,0,1.96-4.18,1.97-4.18l-.38-.57h-1.8c-2.67,0-5.22-.08-7.57-.21-.11-11.24-1.8-20.25-2.61-26.84h-3.37c.35,2.4,2.72,15.62,3.46,26.68-7.12-.51-11.92-1.39-12.08-1.45.08-.2.13-.36.2-.52,1.07-2.29,1.46-4.72,1.54-7.22.09-2.68-.13-5.35-.39-8.02-.23-2.38-.51-4.76-.77-7.14-.04-.39-.16-1.21-.34-2.34h-3.08c.59,3.95,1.06,7.26,1.16,8.18.2,1.78.38,3.57.59,5.35.26,2.21.46,4.42.57,6.64.03.63.02,1.25.02,1.88,0,.16-.05.33-.08.52-.21.06-.39.13-.59.15-.99.12-1.98.22-2.97.33-1.64.18-3.29.35-4.92.56-.9.12-1.8.3-2.67.55-.7.2-1.21.61-1.52,1.27-.42.91-.84,1.81-1.26,2.71-.08.18-.14.37-.18.57-.02.1.02.21.03.28.08.03.1.06.12.05.11,0,.23,0,.33-.05.67-.27,1.38-.32,2.1-.34,1.43-.04,2.85.12,4.26.26.48.05.96.09,1.44.17,1.32.2,2.65.41,3.97.62,2.17.35,4.33.71,6.49,1.07.16.03.32.1.48.15-.08.26-.29.3-.46.38-2.81,1.45-5.69,2.77-8.67,3.84-3.04,1.09-6.13,1.94-9.37,2.18-1.55.12-3.08.05-4.59-.27-1.91-.39-3.61-1.21-5.03-2.57-.82-.79-1.39-1.72-1.73-2.81-.38-1.22-.42-2.46-.25-3.72,0-.08.04-.24.04-.24,4.82-1.77,10.66-3.83,10.66-3.83l1.28-3.44-.46-.77s-6.73.81-11.5.81c-6.37,0-13.01-.81-15.99-.81-4.42,0-7.24,2.83-7.63,3.05-.53,1.45-.69,1.87-1.14,3.26-.03.1-.22.8.62.8,1.64,0,8.02-.86,8.02-.86,0,0,.74-.86,1.11-1.28.29,0,8.99.26,11.05.28l.06.27c-3.72,1.67-11.76,5.13-16.74,13.84-1.61,2.82-2.33,5.99-2.73,9.21-.25,1.99-.28,4.04-.08,6.01h2.24c-.31-1.24-.5-2.27-.51-3.19-.02-1.8.13-3.58.58-5.33,1.31-5.05,4.07-9.11,8.33-12.14,1.49-1.06,3.11-1.89,4.76-2.67,3.62-1.72,6.31-2.59,6.31-2.59"/>
    <path class="cls-2" d="M42.9,201.44c.12-.22.24-.46.32-.7.7-2.02.98-4.09.67-6.22-.02-.1,0-.21.01-.34.15-.02.26-.05.37-.05.77,0,1.53-.08,2.3-.18,2.27-.28,12.79-5.31,13.1-5.48,3.01,2.96,4.82,5.77,9.09,5.77s7.29-2.81,7.85-4.08c.57-1.28.97-2.61,1.24-3.99.43-2.19.58-4.4.65-6.63.06-2-.07-3.99-.24-5.98-.17-2.04-1.83-15.95-2.08-18.09h-3.07c.23,2.01,2.97,27.67,3.01,30.98,0,.25-.04.51-.06.73-.43.52-3.39,2.14-6.07,2.39-1.5.14-2.89-.19-4.14-1.03-.82-.55-2.33-2.16-2.33-2.16,1.01-.74,5.44-3.01,7.27-3.71.43-1.37.77-2.81,1.11-4.25.03-.13.02-.27.03-.39-.95-.71-3.18-1.59-5.49-2.17-3.44-.86-6.92-1.07-10.43-.53-2.49.39-4.87,1.14-7.09,2.28l-2.05,5.19s1.87-1.09,3.36-1.09c2.74,0,3.95,1.59,6.42,4.07,0,0-7.11,3.56-12.48,3.56-4.17,0-6.48-3.25-6.57-3.3-.44.31-.68,1.4-.68,1.4,0,0-1.09-.02-1.6-.02-12.61,0-22.07,17.94-29.95,17.94-3.23,0-4.17-3.2-4.17-4.88,0-4.22,2.02-8.23,2.02-8.23,0,0,.04.74.06.9.07.42.11.85.22,1.26.23.91.77,1.58,1.64,1.96.53.23,1.1.29,1.67.22.57-.07,1.12-.18,1.67-.36,1.37-.46,2.58-1.18,3.72-2.05.98-.74,1.68-1.69,2.19-2.8.34-.76.56-1.55.69-2.37.22-1.39.2-2.78,0-4.17-.18-1.29-.58-2.49-1.31-3.58-.56-.83-2.09-2.57-2.26-2.77.12-.22,1.7-3.15,2.82-5.32.23-.44,1.51-5.82,1.51-5.82h-.78l-5.37,9.48c-.11-.07-2.32-2.26-2.4-2.38-.07-.1-.08-.21.03-.31.3-.09.61,0,.92.02.34.02.68.04,1.02.04.09,0,.18-.09.32-.17-.13-.14-.21-.27-.32-.35-2.03-1.37-4.11-2.66-6.26-3.83-.04-.02-.11.02-.21.04-.08,1.55-.2,3.1-.16,4.64.34.18.66.3.92.51.26.21.49.48.67.77.88,1.37,1.86,2.66,2.9,3.91.12.15.22.32.35.51-.14.24-1.07,1.63-1.69,2.68-1,1.7-1.79,3.5-2.21,5.44-.12.56-.21,1.12-.31,1.69C1.04,193.91.01,197.8,0,200.51c-.01,3.18,1.61,9.08,6.84,9.28,8.01.3,14.72-17.6,29.42-17.6,0,.78-.04,1.6.11,2.41.16.82.4,1.6.77,2.35.37.75.83,1.43,1.39,2.05.55.62,1.17,1.16,1.86,1.63.68.46,1.37.92,2.21,1.13.11-.11.23-.19.29-.31M65.24,180.76c0,.32-4.6,2.74-4.6,2.74,0,0-3.56-3.01-3.56-3.38,0-.96,8.17-.3,8.17.63M4.55,190.01c.2-.62.4-1.25.68-1.83.39-.82.83-1.62,1.31-2.39.71-1.13,1.47-2.23,2.22-3.34.11-.16.26-.29.37-.42.07.03.1.04.12.06,1.24,1.17,2.48,2.35,3.58,3.65.56.66.84,1.13,1.14,1.85-.09.14-.18.31-.31.45-.55.58-1.18,1.06-1.84,1.51-1.18.81-2.42,1.49-3.79,1.92-.74.23-1.5.34-2.27.26-.49-.04-.95-.17-1.24-.61-.12-.38-.08-.75.04-1.1"/>
    <path class="cls-2" d="M85.18,164.78c.19,1.87.42,3.73.63,5.6.16,1.41.31,2.83.44,4.25.15,1.59.29,3.18.42,4.76.09,1.16.17,2.33.24,3.49.1,1.68.22,3.35.27,5.03.05,1.96.03,3.93.04,5.89,0,.26,0,.51.02.77.02.16.1.31.18.52.13-.08.25-.12.31-.2.13-.22.27-.44.35-.68.22-.65.44-1.29.62-1.95.49-1.76.7-3.58.82-5.39.16-2.59.13-5.18-.02-7.77-.11-2.02-.29-4.03-.46-6.05-.11-1.33-.25-2.66-.39-3.99-.2-1.81-.42-3.62-.63-5.43-.14-1.19-.26-2.38-.4-3.56-.05-.38-.25-2.11-.53-4.58h-2.9c.21,1.86.35,3.14.37,3.44.14,1.96.43,3.91.63,5.86"/>
    <path class="cls-2" d="M216.77,194.89c.7,0,2.31-6.28,2.31-11.45,0-11.76-1.78-21.15-2.62-27.96h-3.37c.42,2.84,3.68,20.92,3.68,32.55,0,4.4-.48,6.86,0,6.86"/>
    <path class="cls-2" d="M229.15,195.06c.93-1.04,1.61-2.21,1.84-3.6.3-1.79.34-2.19.53-4.06.11-1.09-.05-2.16-.33-3.21-.29-1.11-.82-2.12-1.41-3.1-.76-1.27-1.75-2.98-2.49-4.26l.14-.16s1.32.17,1.71.17c.71,0,.82-.65.14-1.33-1.27-1.27-4.1-4.07-4.1-4.07h-.89l-1.07,5.24c1.72.93,1.22,2.7,6.6,12.63-4.43,5.9-17.87,14.27-32.01,20.48h9.5c14.91-7.09,20.57-13.32,21.83-14.72"/>
    <path class="cls-2" d="M208.3,189.31c-4.43,5.9-17.87,14.27-32.01,20.48h9.5c14.91-7.09,20.57-13.32,21.83-14.72.93-1.04,1.62-2.21,1.85-3.6.29-1.79.34-2.19.53-4.06.11-1.09-.05-2.16-.33-3.21-.29-1.11-.82-2.12-1.41-3.1-.76-1.27-1.75-2.98-2.49-4.26l.14-.16s1.32.17,1.71.17c.71,0,.82-.65.14-1.33-1.27-1.27-4.1-4.07-4.1-4.07h-.89l-1.07,5.24c1.72.93,1.22,2.69,6.6,12.63"/>
    <polygon class="cls-2" points="7 224.26 6.59 225.81 6.19 224.24 2.66 214.59 0 214.59 0 227.98 2.1 227.98 2.1 218.16 2.21 218.59 5.59 227.98 7.57 227.98 10.94 218.6 11.07 218.14 11.07 227.98 13.17 227.98 13.17 214.59 10.5 214.59 7 224.26"/>
    <rect class="cls-1" x="16.49" y="214.59" width="2.11" height="13.38"/>
    <polygon class="cls-2" points="30.69 224.81 24.32 214.59 21.9 214.59 21.9 227.98 23.99 227.98 23.99 217.74 30.36 227.98 32.8 227.98 32.8 214.59 30.69 214.59 30.69 224.81"/>
    <rect class="cls-1" x="36.1" y="214.59" width="2.11" height="13.38"/>
    <path class="cls-2" d="M46.71,220.3c-.36-.1-.84-.23-1.2-.35-1.39-.44-2.08-.86-2.08-2.01v-.03c0-.96.81-1.65,2.52-1.65,1.3,0,2.62.38,3.61,1.04l.81-1.77c-1.14-.74-2.79-1.15-4.44-1.15-2.89,0-4.62,1.44-4.62,3.58v.03c0,2,1.04,3.15,3.42,3.84l1.16.35c1.93.58,2.66,1.09,2.66,2.1v.03c0,1.19-1.07,1.96-2.99,1.96-1.4,0-2.79-.41-3.8-1.11l-.83,1.76c1.19.79,2.92,1.24,4.7,1.24,3.1,0,5.03-1.45,5.03-3.9v-.03c0-1.96-1.14-3.15-3.96-3.94"/>
    <polygon class="cls-2" points="52.19 216.57 56.55 216.57 56.55 227.98 58.66 227.98 58.66 216.57 63 216.57 63 214.59 52.19 214.59 52.19 216.57"/>
    <path class="cls-2" d="M74.98,218.5v-.02c0-2.28-1.39-3.89-4.74-3.89h-5.16v13.38h2.11v-5.4h2.46l3.35,5.4h2.33l-3.5-5.56c2.06-.48,3.15-1.97,3.15-3.91M67.19,220.73v-4.17h3.22c1.5,0,2.46.66,2.46,2.01v.02c0,1.37-.94,2.15-2.46,2.15h-3.22Z"/>
    <polygon class="cls-2" points="82.42 220.88 78.81 214.59 76.43 214.59 81.37 222.86 81.37 227.98 83.48 227.98 83.48 222.86 88.43 214.59 86.05 214.59 82.42 220.88"/>
    <path class="cls-2" d="M99.14,214.38h-.02c-4.13,0-6.7,3.05-6.7,6.86v.02c0,3.8,2.59,6.91,6.7,6.91h.02c4.08,0,6.68-3.12,6.68-6.91v-.02c0-3.81-2.59-6.86-6.68-6.86M103.71,221.24c-.02,2.76-1.86,4.87-4.57,4.87h-.02c-2.72,0-4.57-2.11-4.59-4.87v-.02c0-2.77,1.83-4.8,4.59-4.8h.02c2.72,0,4.57,2.03,4.57,4.8v.02Z"/>
    <polygon class="cls-2" points="108.25 227.98 110.36 227.98 110.36 222.1 115.95 222.1 115.95 220.12 110.36 220.12 110.36 216.57 116.56 216.57 116.56 214.59 108.25 214.59 108.25 227.98"/>
    <polygon class="cls-2" points="130.82 220.12 124.35 220.12 124.35 214.59 122.24 214.59 122.24 227.98 124.35 227.98 124.35 222.1 130.82 222.1 130.82 227.98 132.93 227.98 132.93 214.59 130.82 214.59 130.82 220.12"/>
    <path class="cls-2" d="M139.71,214.59l-4.95,13.38h2.18l1.3-3.61h5.53l1.32,3.61h2.18l-5-13.38h-2.56ZM138.89,222.46l2.06-5.64.03-.15.05.15,2.08,5.64h-4.22Z"/>
    <path class="cls-2" d="M160.23,224.22c0,1.55-.69,1.93-1.8,1.93h-1.71v1.83h2.18c2.24,0,3.45-1.12,3.45-3.75v-9.64h-2.11v9.63Z"/>
    <path class="cls-2" d="M152.69,224.22c0,1.55-.69,1.93-1.8,1.93h-1.71v1.83h2.18c2.24,0,3.45-1.12,3.45-3.75v-9.64h-2.11v9.63Z"/>
    <path class="cls-2" d="M178.96,220.72h-1.91c-.3,1.45-.41,2.18-.97,3.18l-2.61-2.92c2.49-1.11,3.09-2.29,3.09-3.6v-.02c0-1.77-1.32-3-3.61-3s-3.78,1.24-3.78,2.92v.02c0,1.32.46,2.18,1.4,3.32-2.19.97-3.25,2.09-3.25,3.78v.03c0,2.28,1.73,3.76,4.55,3.76,1.57,0,2.94-.58,4.08-1.55l1.19,1.34h2.62l-2.46-2.74c.97-1.45,1.25-2.61,1.67-4.52M171.17,217.4c0-.86.74-1.44,1.85-1.44s1.77.58,1.77,1.5v.02c0,.74-.3,1.45-2.34,2.33-.79-.92-1.27-1.52-1.27-2.39v-.02ZM172.11,226.39c-1.65,0-2.66-.84-2.66-2.08v-.05c0-1.11.69-1.85,2.11-2.48l3.2,3.55c-.78.64-1.7,1.06-2.66,1.06"/>
    <path class="cls-2" d="M193.83,222.22c0,2.71-.99,3.89-3.5,3.89s-3.52-1.19-3.52-3.89v-7.62h-2.11v8.17c0,3.42,1.65,5.41,5.63,5.41s5.61-2,5.61-5.41v-8.17h-2.11v7.62Z"/>
    <polygon class="cls-2" points="206.24 224.26 205.83 225.81 205.44 224.24 201.9 214.59 199.25 214.59 199.25 227.98 201.34 227.98 201.34 218.16 201.46 218.59 204.84 227.98 206.82 227.98 210.19 218.6 210.32 218.14 210.32 227.98 212.42 227.98 212.42 214.59 209.74 214.59 206.24 224.26"/>
    <path class="cls-2" d="M225.63,218.5v-.02c0-2.28-1.39-3.89-4.74-3.89h-5.17v13.38h2.11v-5.4h2.46l3.35,5.4h2.33l-3.5-5.56c2.06-.48,3.15-1.97,3.15-3.91M217.84,220.73v-4.17h3.22c1.5,0,2.46.66,2.46,2.01v.02c0,1.37-.94,2.15-2.46,2.15h-3.22Z"/>
    <path class="cls-2" d="M231.64,214.59l-4.95,13.38h2.18l1.3-3.61h5.53l1.32,3.61h2.18l-5-13.38h-2.56ZM230.81,222.46l2.06-5.64.03-.15.05.15,2.08,5.64h-4.22Z"/>
    <polygon class="cls-2" points="249.77 214.59 249.77 220.12 243.3 220.12 243.3 214.59 241.19 214.59 241.19 227.98 243.3 227.98 243.3 222.1 249.77 222.1 249.77 227.98 251.88 227.98 251.88 214.59 249.77 214.59"/>
    <path class="cls-2" d="M146.27,168.78c3.07,0,3.96-5.06,3.96-5.06h-.7s-.64,2.24-2.44,2.24c-5.24,0-.43-10.47-.43-10.48h-.9s-5.69,13.3.51,13.3"/>
  </g>
  <g>
    <path class="cls-2" d="M95.76,30.02s7.97-8.16,20.55-6.83c-18.68,2.31-18.08,17.17-18.08,17.17,0,0,8.01-10.45,18.98-11.62-20.06,9.11-12.95,23.39-12.95,23.39,0,0,.02-9.98,15.42-17.88-15.6,14.77-6.41,27.8-6.41,27.8,0,0,.47-13.36,9.79-22.35l-.85,15.26.85,1.7-.85,6.33.85,2.14-.85,6.27.85,1.81-2.5,6.79,5.37,4.52h0s0,0,0,0h0s0-.03,0-.03v.03s0,0,0,0h0s0,0,0,0l5.37-4.52-2.5-6.79.85-1.81-.85-6.27.85-2.14-.85-6.33.85-1.7-.85-15.26c9.32,8.99,9.79,22.35,9.79,22.35,0,0,9.19-13.03-6.41-27.8,15.4,7.9,15.42,17.88,15.42,17.88,0,0,7.11-14.28-12.95-23.39,10.97,1.17,18.98,11.62,18.98,11.62,0,0,.61-14.86-18.08-17.17,12.58-1.33,20.55,6.83,20.55,6.83,0,0-1.21-14.34-21.37-12.28-.18.02,10.34-3.27,19.36-.34-7.15-10.79-21.29-4.75-21.29-4.75,6.09-5.74,15.74-5.4,15.74-5.4,0,0-10.09-6.61-18.8,1.34C128.59,2.1,125.94,0,125.94,0c0,0-2.61,1.81-3.81,8.58-8.71-7.95-18.8-1.34-18.8-1.34,0,0,9.66-.34,15.74,5.4,0,0-14.14-6.04-21.29,4.75,9.02-2.93,19.54.36,19.36.34-20.16-2.06-21.37,12.28-21.37,12.28Z"/>
    <path class="cls-2" d="M151.26,106.75c-.36,1.88-1.74,2.75-3.4,2.32-2.25-.58-5-3.04-6.74-4.42,4.26-4.55,3.41-9.75-.04-9.78,0,0,0,0-.01,0,0,0,0,0,0,0h0s0,0,0,0c-.86,0-1.55.7-1.55,1.56s.7,1.56,1.56,1.56c.05,0,.09-.02.14-.03-.49,2.06-2.08,3.51-2.83,4.37-1.53-1.32-5.38-4.8-8.4-7.54.04-.03.08-.07.08-.07,14.2-11.66,29.77-22.09,50.13-22.38-21.21-7.58-38.26,4.64-52.81,17.54-.46.41-.92.82-1.37,1.22,0,0-.03.03-.04.04-.01,0-.04-.04-.04-.04-14.85-13.33-32.31-26.59-54.19-18.76,20.36.29,35.93,10.72,50.13,22.38,0,0,.04.04.08.07-3.02,2.74-6.87,6.21-8.4,7.54-.75-.85-2.34-2.3-2.83-4.37.05,0,.09.03.14.03.86,0,1.56-.7,1.56-1.56s-.69-1.55-1.55-1.56c0,0,0,0,0,0h0s0,0,0,0c0,0,0,0-.01,0-3.45.03-4.31,5.23-.04,9.78-1.74,1.38-4.49,3.84-6.74,4.42-1.66.43-3.04-.43-3.4-2.32-.65-3.91-6.66-3.33-5.94,2.17.65,5.07,6.81,7.24,12.02,4.93,2.1-.94,4.93-3.55,7.32-5.43.76.86,2.35,2.31,2.84,4.38-.07,0-.13-.04-.21-.04-.86,0-1.56.7-1.56,1.56s.7,1.56,1.56,1.56c.02,0,.03,0,.05,0,0,0,0,0,0,0,3.4-.07,4.35-5.22,0-9.78,1.81-1.52,6.02-5.12,9.23-7.86,3.21,2.75,7.42,6.34,9.23,7.86-4.35,4.56-3.4,9.71,0,9.78,0,0,0,0,0,0,.02,0,.03,0,.05,0,.86,0,1.56-.7,1.56-1.56s-.7-1.56-1.56-1.56c-.07,0-.14.03-.21.04.49-2.07,2.08-3.52,2.84-4.38,2.39,1.88,5.22,4.49,7.32,5.43,5.22,2.32,11.37.14,12.02-4.93.72-5.51-5.29-6.09-5.94-2.17Z"/>
  </g>
</svg>